<?xml version="1.0" encoding="UTF-8" standalone="no"?>
<!-- Created with Inkscape (http://www.inkscape.org/) -->

<svg
   xmlns:dc="http://purl.org/dc/elements/1.1/"
   xmlns:cc="http://creativecommons.org/ns#"
   xmlns:rdf="http://www.w3.org/1999/02/22-rdf-syntax-ns#"
   xmlns:svg="http://www.w3.org/2000/svg"
   xmlns="http://www.w3.org/2000/svg"
   xmlns:sodipodi="http://sodipodi.sourceforge.net/DTD/sodipodi-0.dtd"
   xmlns:inkscape="http://www.inkscape.org/namespaces/inkscape"
   width="108.04776mm"
   height="125.50642mm"
   viewBox="0 0 108.04776 125.50642"
   version="1.1"
   id="svg8"
   inkscape:version="0.92.5 (2060ec1f9f, 2020-04-08)"
   sodipodi:docname="venn-array-bag-dataframe-2.svg">
  <defs
     id="defs2" />
  <sodipodi:namedview
     id="base"
     pagecolor="#ffffff"
     bordercolor="#666666"
     borderopacity="1.0"
     inkscape:pageopacity="0.0"
     inkscape:pageshadow="2"
     inkscape:zoom="1.4"
     inkscape:cx="201.5161"
     inkscape:cy="219.7715"
     inkscape:document-units="mm"
     inkscape:current-layer="layer1"
     showgrid="false"
     inkscape:window-width="1529"
     inkscape:window-height="995"
     inkscape:window-x="2133"
     inkscape:window-y="28"
     inkscape:window-maximized="0"
     fit-margin-top="5"
     fit-margin-left="5"
     fit-margin-right="5"
     fit-margin-bottom="5" />
  <metadata
     id="metadata5">
    <rdf:RDF>
      <cc:Work
         rdf:about="">
        <dc:format>image/svg+xml</dc:format>
        <dc:type
           rdf:resource="http://purl.org/dc/dcmitype/StillImage" />
        <dc:title></dc:title>
      </cc:Work>
    </rdf:RDF>
  </metadata>
  <g
     inkscape:label="Layer 1"
     inkscape:groupmode="layer"
     id="layer1"
     transform="translate(-99.522461,-115.33884)">
    <ellipse
       inkscape:transform-center-y="9.8889715"
       ry="33.675961"
       rx="24.45516"
       cy="-239.78165"
       cx="73.964905"
       id="ellipse827"
       style="opacity:1;vector-effect:none;fill:#0066ff;fill-opacity:0.50196078;fill-rule:evenodd;stroke:none;stroke-width:0.5291667;stroke-linecap:butt;stroke-linejoin:miter;stroke-miterlimit:4;stroke-dasharray:none;stroke-dashoffset:0;stroke-opacity:1"
       transform="rotate(120)"
       inkscape:transform-center-x="-17.128204" />
    <ellipse
       style="opacity:1;vector-effect:none;fill:#37c837;fill-opacity:0.50196078;fill-rule:evenodd;stroke:none;stroke-width:0.5291667;stroke-linecap:butt;stroke-linejoin:miter;stroke-miterlimit:4;stroke-dasharray:none;stroke-dashoffset:0;stroke-opacity:1"
       id="path817"
       cx="153.54634"
       cy="154.27939"
       rx="24.45516"
       ry="33.675961"
       inkscape:transform-center-y="-19.77795" />
    <ellipse
       inkscape:transform-center-y="9.8889734"
       ry="33.675961"
       rx="24.45516"
       cy="26.168413"
       cx="-227.51125"
       id="ellipse829"
       style="opacity:1;vector-effect:none;fill:#ff0000;fill-opacity:0.50196078;fill-rule:evenodd;stroke:none;stroke-width:0.5291667;stroke-linecap:butt;stroke-linejoin:miter;stroke-miterlimit:4;stroke-dasharray:none;stroke-dashoffset:0;stroke-opacity:1"
       transform="rotate(-120)"
       inkscape:transform-center-x="17.128208" />
    <path
       style="opacity:1;vector-effect:none;fill:#ffff00;fill-opacity:0.50196078;fill-rule:evenodd;stroke:none;stroke-width:0.5291667;stroke-linecap:butt;stroke-linejoin:miter;stroke-miterlimit:4;stroke-dasharray:none;stroke-dashoffset:0;stroke-opacity:1"
       d="m 135.07909,179.8595 a 24.45516,33.67596 0 0 0 -5.98775,22.04518 24.45516,33.67596 0 0 0 24.45484,33.676 24.45516,33.67596 0 0 0 24.45536,-33.676 24.45516,33.67596 0 0 0 -5.93349,-21.92839 c -0.10908,0.16411 -0.20048,0.34059 -0.31419,0.50126 -0.43041,0.60816 -0.89354,1.1919 -1.38597,1.74925 -0.49242,0.55735 -1.01416,1.0883 -1.56166,1.59215 -0.5475,0.50385 -1.12056,0.98016 -1.71617,1.42782 -0.59562,0.44767 -1.21376,0.86696 -1.85054,1.25574 -0.63677,0.38878 -1.2922,0.74715 -1.96318,1.07435 -0.67098,0.32721 -1.35746,0.62332 -2.05569,0.88626 -0.69823,0.26293 -1.40848,0.49286 -2.127,0.68884 -0.71853,0.19598 -1.44527,0.35788 -2.17713,0.48421 -0.73186,0.12633 -1.46886,0.2168 -2.2071,0.27078 -0.73825,0.054 -1.4777,0.0712 -2.21537,0.0501 -0.73767,-0.0211 -1.47334,-0.08 -2.20348,-0.1788 -0.73015,-0.0988 -1.45476,-0.2373 -2.17041,-0.41651 -0.71566,-0.17921 -1.42245,-0.39914 -2.11667,-0.66146 -0.69422,-0.26232 -1.37592,-0.56706 -2.04174,-0.91519 -0.66582,-0.34812 -1.31566,-0.73953 -1.94613,-1.17615 -0.85944,-0.61471 -1.68065,-1.26607 -2.46393,-1.95079 -0.78328,-0.68471 -1.52869,-1.40286 -2.23656,-2.15129 -0.70787,-0.74843 -1.37804,-1.52733 -2.01124,-2.33319 -0.0797,-0.10139 -0.14631,-0.21195 -0.2248,-0.31419 z"
       id="path928"
       inkscape:connector-curvature="0" />
    <ellipse
       inkscape:transform-center-x="17.128208"
       transform="rotate(-120)"
       style="opacity:1;vector-effect:none;fill:none;fill-opacity:0.50196078;fill-rule:evenodd;stroke:#000000;stroke-width:0.5291667;stroke-linecap:butt;stroke-linejoin:miter;stroke-miterlimit:4;stroke-dasharray:none;stroke-dashoffset:0;stroke-opacity:1"
       id="ellipse932"
       cx="-227.51125"
       cy="26.168413"
       rx="24.45516"
       ry="33.675961"
       inkscape:transform-center-y="9.8889734" />
    <ellipse
       inkscape:transform-center-y="-19.77795"
       ry="33.675961"
       rx="24.45516"
       cy="154.27939"
       cx="153.54634"
       id="ellipse934"
       style="opacity:1;vector-effect:none;fill:none;fill-opacity:0.50196078;fill-rule:evenodd;stroke:#000000;stroke-width:0.5291667;stroke-linecap:butt;stroke-linejoin:miter;stroke-miterlimit:4;stroke-dasharray:none;stroke-dashoffset:0;stroke-opacity:1" />
    <ellipse
       inkscape:transform-center-x="-17.128204"
       transform="rotate(120)"
       style="opacity:1;vector-effect:none;fill:none;fill-opacity:0.50196078;fill-rule:evenodd;stroke:#000000;stroke-width:0.5291667;stroke-linecap:butt;stroke-linejoin:miter;stroke-miterlimit:4;stroke-dasharray:none;stroke-dashoffset:0;stroke-opacity:1"
       id="ellipse936"
       cx="73.964905"
       cy="-239.78165"
       rx="24.45516"
       ry="33.675961"
       inkscape:transform-center-y="9.8889715" />
    <path
       inkscape:connector-curvature="0"
       id="path938"
       d="m 135.07909,179.8595 a 24.45516,33.67596 0 0 0 -5.98775,22.04518 24.45516,33.67596 0 0 0 24.45484,33.676 24.45516,33.67596 0 0 0 24.45536,-33.676 24.45516,33.67596 0 0 0 -5.93349,-21.92839 c -0.10908,0.16411 -0.20048,0.34059 -0.31419,0.50126 -0.43041,0.60816 -0.89354,1.1919 -1.38597,1.74925 -0.49242,0.55735 -1.01416,1.0883 -1.56166,1.59215 -0.5475,0.50385 -1.12056,0.98016 -1.71617,1.42782 -0.59562,0.44767 -1.21376,0.86696 -1.85054,1.25574 -0.63677,0.38878 -1.2922,0.74715 -1.96318,1.07435 -0.67098,0.32721 -1.35746,0.62332 -2.05569,0.88626 -0.69823,0.26293 -1.40848,0.49286 -2.127,0.68884 -0.71853,0.19598 -1.44527,0.35788 -2.17713,0.48421 -0.73186,0.12633 -1.46886,0.2168 -2.2071,0.27078 -0.73825,0.054 -1.4777,0.0712 -2.21537,0.0501 -0.73767,-0.0211 -1.47334,-0.08 -2.20348,-0.1788 -0.73015,-0.0988 -1.45476,-0.2373 -2.17041,-0.41651 -0.71566,-0.17921 -1.42245,-0.39914 -2.11667,-0.66146 -0.69422,-0.26232 -1.37592,-0.56706 -2.04174,-0.91519 -0.66582,-0.34812 -1.31566,-0.73953 -1.94613,-1.17615 -0.85944,-0.61471 -1.68065,-1.26607 -2.46393,-1.95079 -0.78328,-0.68471 -1.52869,-1.40286 -2.23656,-2.15129 -0.70787,-0.74843 -1.37804,-1.52733 -2.01124,-2.33319 -0.0797,-0.10139 -0.14631,-0.21195 -0.2248,-0.31419 z"
       style="opacity:1;vector-effect:none;fill:none;fill-opacity:0.50196078;fill-rule:evenodd;stroke:#000000;stroke-width:0.5291667;stroke-linecap:butt;stroke-linejoin:miter;stroke-miterlimit:4;stroke-dasharray:none;stroke-dashoffset:0;stroke-opacity:1" />
    <text
       xml:space="preserve"
       style="font-style:normal;font-variant:normal;font-weight:normal;font-stretch:normal;font-size:5.64444447px;line-height:1;font-family:'DejaVu Sans';-inkscape-font-specification:'DejaVu Sans';text-align:start;letter-spacing:0px;word-spacing:0px;text-anchor:start;fill:#000000;fill-opacity:1;stroke:none;stroke-width:0.26458332"
       x="86.556549"
       y="141.65179"
       id="text942"><tspan
         sodipodi:role="line"
         id="tspan940"
         x="86.556549"
         y="145.94025"
         style="stroke-width:0.26458332" /></text>
    <text
       xml:space="preserve"
       style="font-style:normal;font-variant:normal;font-weight:normal;font-stretch:normal;font-size:6.77333355px;line-height:1;font-family:'DejaVu Sans';-inkscape-font-specification:'DejaVu Sans';text-align:center;letter-spacing:0px;word-spacing:0px;text-anchor:middle;fill:#000000;fill-opacity:1;stroke:none;stroke-width:0.3175"
       x="153.53973"
       y="147.3643"
       id="text946"><tspan
         sodipodi:role="line"
         id="tspan944"
         x="153.53973"
         y="147.3643"
         style="stroke-width:0.3175">dataframe</tspan></text>
    <text
       xml:space="preserve"
       style="font-style:normal;font-variant:normal;font-weight:normal;font-stretch:normal;font-size:6.77333355px;line-height:1;font-family:'DejaVu Sans';-inkscape-font-specification:'DejaVu Sans';text-align:center;letter-spacing:0px;word-spacing:0px;text-anchor:middle;fill:#000000;fill-opacity:1;stroke:none;stroke-width:0.3175"
       x="121.69381"
       y="186.79123"
       id="text950"><tspan
         sodipodi:role="line"
         id="tspan948"
         x="121.69381"
         y="186.79123"
         style="stroke-width:0.3175">array</tspan></text>
    <text
       xml:space="preserve"
       style="font-style:normal;font-variant:normal;font-weight:normal;font-stretch:normal;font-size:6.77333355px;line-height:1;font-family:'DejaVu Sans';-inkscape-font-specification:'DejaVu Sans';text-align:center;letter-spacing:0px;word-spacing:0px;text-anchor:middle;fill:#000000;fill-opacity:1;stroke:none;stroke-width:0.3175"
       x="185.29637"
       y="186.79123"
       id="text954"><tspan
         sodipodi:role="line"
         id="tspan952"
         x="185.29637"
         y="186.79123"
         style="stroke-width:0.3175">bag</tspan></text>
    <text
       xml:space="preserve"
       style="font-style:normal;font-variant:normal;font-weight:normal;font-stretch:normal;font-size:6.77333355px;line-height:1;font-family:'DejaVu Sans';-inkscape-font-specification:'DejaVu Sans';text-align:center;letter-spacing:0px;word-spacing:0px;text-anchor:middle;fill:#000000;fill-opacity:1;stroke:none;stroke-width:0.3175"
       x="153.82745"
       y="219.63985"
       id="text958"><tspan
         sodipodi:role="line"
         id="tspan956"
         x="153.82745"
         y="219.63985"
         style="stroke-width:0.3175">Awkward</tspan><tspan
         sodipodi:role="line"
         x="153.82745"
         y="226.41318"
         style="stroke-width:0.3175"
         id="tspan960">Array</tspan></text>
  </g>
</svg>
